<?xml version="1.0" encoding="UTF-8" standalone="no"?>
<!-- Created with Inkscape (http://www.inkscape.org/) -->

<svg
   width="0.93621141in"
   height="0.89669418in"
   viewBox="0 0 89.876295 86.082642"
   version="1.1"
   id="svg5"
   sodipodi:docname="logo.svg"
   inkscape:version="1.2.2 (732a01da63, 2022-12-09)"
   xmlns:inkscape="http://www.inkscape.org/namespaces/inkscape"
   xmlns:sodipodi="http://sodipodi.sourceforge.net/DTD/sodipodi-0.dtd"
   xmlns="http://www.w3.org/2000/svg"
   xmlns:svg="http://www.w3.org/2000/svg">
  <sodipodi:namedview
     id="namedview7"
     pagecolor="#ffffff"
     bordercolor="#000000"
     borderopacity="0.25"
     inkscape:showpageshadow="2"
     inkscape:pageopacity="0.0"
     inkscape:pagecheckerboard="0"
     inkscape:deskcolor="#d1d1d1"
     inkscape:document-units="in"
     showgrid="false"
     inkscape:zoom="3.6011905"
     inkscape:cx="77.335537"
     inkscape:cy="21.798347"
     inkscape:window-width="1866"
     inkscape:window-height="1230"
     inkscape:window-x="1197"
     inkscape:window-y="95"
     inkscape:window-maximized="0"
     inkscape:current-layer="layer1" />
  <defs
     id="defs2">
    <linearGradient
       id="linearGradient5554"
       inkscape:swatch="solid">
      <stop
         style="stop-color:#ffffff;stop-opacity:1;"
         offset="0"
         id="stop5552" />
    </linearGradient>
    <linearGradient
       id="linearGradient5479"
       inkscape:swatch="solid">
      <stop
         style="stop-color:#ffffff;stop-opacity:1;"
         offset="0"
         id="stop5477" />
    </linearGradient>
    <linearGradient
       id="linearGradient913"
       inkscape:swatch="solid">
      <stop
         style="stop-color:#ff6600;stop-opacity:1;"
         offset="0"
         id="stop911" />
    </linearGradient>
  </defs>
  <g
     inkscape:label="Layer 1"
     inkscape:groupmode="layer"
     id="layer1"
     transform="translate(-29.434711,-41.652893)">
    <rect
       style="fill:#ff6f00;fill-opacity:1"
       id="rect111"
       width="88.304131"
       height="86.082642"
       x="29.434711"
       y="41.652893"
       ry="19.200001" />
    <path
       style="display:inline;fill:#ffffff;fill-opacity:1"
       id="path5195"
       d="m 117.07533,105.21801 c -3.02991,0.37078 -5.99961,1.04447 -8.94683,1.824 -1.84643,0.49162 -3.64233,1.14846 -5.41736,1.85048 -0.94077,0.37206 -1.85549,0.75104 -2.733335,1.25237 -2.299086,1.36258 -0.372115,4.61397 1.926975,3.25141 v 0 c 0.64673,-0.4206 1.45972,-0.69723 2.1654,-0.97705 1.64706,-0.65306 3.31225,-1.26816 5.02653,-1.72379 2.78055,-0.73841 5.5819,-1.37599 8.44122,-1.7263 2.65244,-0.32711 2.18983,-4.07822 -0.4626,-3.75111 z" />
    <path
       style="fill:#ffffff;fill-opacity:1"
       id="path5197"
       d="m 82.5263,49.09355 c -1.053011,0.859865 -2.077718,1.765621 -2.952431,2.810983 -0.708375,0.846575 -1.04907,1.38085 -1.667731,2.275633 -0.969065,1.582653 -1.733836,3.306814 -2.181757,5.112095 -0.297667,1.199706 -0.298491,1.535323 -0.441981,2.754889 -0.122806,1.926966 0.08756,3.886639 0.657621,5.736067 0.378263,1.227191 0.638201,1.682697 1.177187,2.84053 1.310426,2.523056 3.032818,4.808895 5.091365,6.770504 0.431869,0.411532 0.892049,0.792293 1.338073,1.188439 2.117883,1.678249 4.494254,3.002208 6.981095,4.049508 1.464029,0.616557 2.377986,0.905253 3.859951,1.415715 2.919858,0.914917 5.915918,1.552138 8.905098,2.192078 1.57142,0.311661 3.11525,0.731562 4.59,1.358586 0.90205,0.418576 1.76475,0.916839 2.6102,1.438838 0.33756,0.262839 1.45442,0.881411 1.43318,1.380086 -0.0587,-0.09842 -0.0888,-0.221043 -0.17614,-0.295263 -0.0422,-0.03589 -0.13978,0.106327 -0.3202,0.272986 -0.13966,0.129007 -0.27798,0.26013 -0.42732,0.377785 -0.66071,0.520512 -0.8822,0.619596 -1.64717,1.085738 -3.80073,1.953455 -7.7245,3.659565 -11.603978,5.450182 -4.438449,2.044658 -8.825505,4.195851 -13.175502,6.421681 -3.37376,1.72228 -6.74821,3.44344 -10.135755,5.13851 -2.306948,1.19825 -4.684303,2.24361 -7.145063,3.07994 -2.048481,0.64653 -4.146393,1.11578 -6.275585,1.39283 -0.883621,0.0364 -1.813902,0.13942 -2.647571,-0.23171 -0.398559,-0.17743 -0.693496,-0.4088 -1.050917,-0.65666 -0.225597,-0.30077 -0.43115,-0.50443 -0.496373,-0.89974 -0.03164,-0.19179 0.0086,-0.38888 0.02372,-0.58268 0.09629,-1.23281 0.34611,-1.76456 0.865466,-2.87557 0.223053,-0.26619 0.419081,-0.5576 0.669159,-0.79858 1.252623,-1.20707 2.993623,-2.00592 4.666987,-2.41048 0.447396,-0.10816 0.906836,-0.15843 1.360255,-0.23764 1.754911,-0.30493 3.451053,0.009 5.070671,0.68868 0.621501,0.29038 0.533942,0.39176 0.09817,-0.10926 1.531175,2.19041 4.628889,0.025 3.097715,-2.16541 v 0 c -0.476298,-0.56833 -1.070849,-0.94204 -1.759976,-1.22147 -2.300597,-0.93117 -4.722773,-1.34188 -7.197722,-0.90834 -0.607865,0.11818 -1.224387,0.1983 -1.823596,0.35455 -2.398596,0.62549 -4.844867,1.86211 -6.52362,3.72507 -0.425953,0.4727 -0.742071,1.03385 -1.113106,1.55077 -0.559903,1.30859 -0.886143,1.84116 -1.091351,3.28761 -0.240713,1.69671 0.03816,3.41526 1.099659,4.79311 0.278726,0.36179 0.648734,0.64301 0.973101,0.96452 0.82621,0.52908 1.135532,0.78837 2.083767,1.13284 1.348983,0.49006 2.782582,0.45775 4.189793,0.34746 2.37514,-0.31687 4.718282,-0.83104 7.001922,-1.56288 2.619836,-0.89711 5.158419,-1.99785 7.615816,-3.27698 3.397673,-1.7002 6.782286,-3.42642 10.166143,-5.15388 4.304441,-2.20273 8.645657,-4.33137 13.037703,-6.35466 4.019058,-1.855049 8.090598,-3.611974 12.011168,-5.669281 1.66582,-1.045734 3.99512,-2.529399 4.17725,-4.738553 0.0381,-0.461608 -0.0769,-0.92315 -0.11537,-1.384725 -0.12252,-0.256487 -0.22282,-0.524823 -0.36756,-0.769461 -0.59922,-1.01282 -1.61212,-1.718849 -2.56667,-2.359832 -1.01054,-0.620356 -2.04014,-1.214967 -3.12248,-1.702572 -1.69674,-0.711128 -3.46168,-1.218094 -5.26779,-1.571968 -2.84124,-0.607963 -5.689252,-1.211578 -8.467598,-2.070545 -3.380933,-1.159382 -6.737698,-2.478512 -9.567466,-4.723651 -0.380244,-0.333687 -0.772907,-0.653735 -1.140734,-1.001062 -1.759795,-1.661716 -3.241261,-3.593426 -4.370897,-5.734206 -0.366246,-0.768216 -0.672524,-1.339046 -0.930237,-2.147427 -0.450688,-1.413695 -0.644773,-2.916614 -0.568845,-4.395858 0.09654,-0.902811 0.10241,-1.23041 0.312885,-2.114726 0.337876,-1.419593 0.926233,-2.780193 1.667811,-4.032565 0.488619,-0.712506 0.811978,-1.216017 1.360281,-1.886616 0.754355,-0.922612 1.664206,-1.701179 2.582778,-2.453772 2.043673,-1.722154 -0.391821,-4.612344 -2.435494,-2.89019 z" />
    <path
       style="fill:#ffffff;fill-opacity:1;fill-rule:nonzero"
       id="path5564"
       d="m 105.80978,50.682737 c -2.34148,-0.188217 -4.27166,0.341707 -6.349244,1.448506 -0.542894,0.289218 -1.054261,0.634078 -1.581391,0.951117 -0.514156,0.422292 -1.066348,0.802123 -1.542469,1.266877 -1.408882,1.375248 -2.523412,3.073475 -3.110579,4.958082 -0.428747,1.376133 -0.41363,2.07878 -0.524828,3.467116 0.05703,0.576896 0.06017,1.161691 0.171087,1.730689 0.414035,2.123889 1.544906,4.141572 2.996567,5.72844 0.354641,0.387673 0.754947,0.730958 1.132421,1.096437 1.937232,1.68172 4.286026,2.793884 6.874996,2.959025 0.55026,0.0351 1.10262,-0.01759 1.65393,-0.02639 1.37428,-0.324048 2.08709,-0.394433 3.32882,-1.046013 1.64872,-0.865145 3.14025,-2.196386 4.31458,-3.632386 0.41084,-0.502391 0.75435,-1.056272 1.13152,-1.584408 0.29599,-0.607427 0.65481,-1.188076 0.88796,-1.82228 0.68172,-1.854348 0.7561,-3.79082 0.24235,-5.693247 -0.29952,-1.109144 -0.67701,-1.73245 -1.18375,-2.719052 -0.55973,-0.945818 -0.87473,-1.711725 -0.87317,-1.362329 -1.08799,-2.660343 -4.92393,-1.319494 -3.21114,0.993742 v 0 c 0.50052,1.126149 1.09465,1.983828 1.25159,2.711146 0.38966,1.877731 0.98627,2.519841 0.35431,4.460475 -0.14286,0.438711 -0.3762,0.842603 -0.5643,1.263904 -0.26707,0.392062 -0.50562,0.805141 -0.80119,1.176185 -0.78093,0.980342 -1.91126,2.098265 -3.01198,2.723453 -0.65654,0.372897 -1.27749,0.5301 -1.9862,0.753207 -0.341,0.01969 -0.68162,0.06995 -1.02302,0.05907 -1.78437,-0.05689 -3.44298,-0.806801 -4.781538,-1.953674 -0.27087,-0.250726 -0.558081,-0.484879 -0.812609,-0.752179 -1.253084,-1.315963 -2.130867,-2.981277 -2.321196,-4.796158 0.05316,-0.913005 0.04126,-1.468498 0.278179,-2.367094 0.470991,-1.786417 1.67259,-3.239143 3.096375,-4.365127 1.089839,-0.67522 2.194149,-1.367461 3.441969,-1.722466 0.7187,-0.20447 1.45212,-0.1554 2.18709,-0.140009 2.66202,0.236784 2.99688,-3.52788 0.33486,-3.764664 z"
       sodipodi:nodetypes="sscsscsscscsscssccsscscsscscscscscss" />
    <path
       style="fill:#ffffff;fill-opacity:1;fill-rule:nonzero"
       id="path5566"
       d="m 96.969262,67.065809 c 0.654086,1.242948 2.043199,2.283502 3.527748,1.843612 0.38144,-0.113027 0.70281,-0.373027 1.05422,-0.55954 0.21889,-0.287087 0.4892,-0.54144 0.65667,-0.861259 0.67246,-1.284155 0.21477,-3.043024 -1.12279,-3.709204 -0.39623,-0.197344 -0.85977,-0.211102 -1.289657,-0.316653 -0.788424,0.12142 -1.236902,0.09029 -1.901915,0.529891 -0.271602,0.179541 -0.485646,0.433773 -0.728469,0.650659 -1.732884,2.034583 1.144451,4.485251 2.877331,2.450667 v 0 c -0.370903,0.233432 -0.297497,0.31167 -0.558789,0.135424 -0.132762,-0.08095 -0.284672,-0.136694 -0.398287,-0.242857 -0.565985,-0.528864 -0.43863,-1.234125 0.152174,-1.625228 0.180503,-0.0542 0.3541,-0.142675 0.541509,-0.162601 0.293393,-0.0312 0.672013,0.120065 0.777883,0.421243 0.0496,0.141109 -0.757788,-0.821577 -0.26755,-0.36023 -1.277089,-2.34765 -4.597167,-0.541573 -3.320078,1.806076 z" />
    <path
       style="fill:#ffffff;fill-opacity:1;fill-rule:nonzero"
       id="path5683"
       d="m 62.30978,73.789878 c -1.811391,-0.32928 -3.595875,0.330757 -5.236734,1.032308 -0.66018,0.282261 -1.325763,0.563194 -1.942313,0.931127 -0.758676,0.452747 -1.446328,1.01509 -2.169492,1.522635 -1.997594,1.747921 -3.690837,3.777169 -5.147464,5.989339 -0.994289,1.51002 -1.826291,3.106345 -2.63084,4.72156 -0.538355,1.191422 -0.311049,0.634303 -0.70002,1.663853 -0.93007,2.505471 2.613202,3.820789 3.543271,1.315318 v 0 c 0.270808,-0.74962 0.100145,-0.313336 0.541296,-1.297011 0.717398,-1.446949 1.459051,-2.877458 2.34091,-4.233887 1.2116,-1.863619 2.620305,-3.580046 4.25681,-5.088768 1.778643,-1.315027 1.31244,-1.121817 3.276382,-2.001109 0.861237,-0.385591 5.485145,-2.173023 6.48903,-2.045761 2.618263,0.535831 -0.0026,-1.973773 -2.620836,-2.509604 z"
       sodipodi:nodetypes="csscsccsscscscc" />
    <path
       style="fill:#ffffff;fill-opacity:1;fill-rule:nonzero"
       id="path5693"
       d="m 35.896911,65.316645 c 0.231945,0.336088 0.43823,0.691415 0.695835,1.008264 1.805434,2.220647 4.147168,3.634114 6.68598,4.907625 3.126019,1.568064 4.828961,2.082225 8.106577,3.277873 3.449431,1.09828 6.976922,1.970774 10.55298,2.542774 0.795749,0.127277 1.59876,0.204031 2.398136,0.306076 2.651464,0.334887 3.125067,-3.41485 0.4736,-3.749737 v 0 c -0.727392,-0.09081 -1.45819,-0.15757 -2.182173,-0.272426 -3.371103,-0.534819 -6.697244,-1.35165 -9.950841,-2.378629 -3.166938,-1.14789 -4.532031,-1.544859 -7.548666,-3.021948 -2.18059,-1.067721 -4.348699,-2.300747 -5.832695,-4.273175 -1.169064,-2.40327 -4.567801,-0.749963 -3.398736,1.653306 z" />
  </g>
</svg>
