<svg xmlns="http://www.w3.org/2000/svg" xmlns:xlink="http://www.w3.org/1999/xlink" version="1.1" width="1000" height="1000" viewBox="0 0 1000 1000" xml:space="preserve">
<desc>Created with Fabric.js 3.5.0</desc>
<defs>
</defs>
<rect x="0" y="0" width="100%" height="100%" fill="#ffffff"/>
<g transform="matrix(1.1364 0 0 1.1364 500.0145 500.0145)" id="684764">
<g style="" vector-effect="non-scaling-stroke">
		<g transform="matrix(3.8618 0 0 3.8618 -131.5952 108.6951)">
<path style="stroke: rgb(0,0,0); stroke-width: 8.6316; stroke-dasharray: none; stroke-linecap: butt; stroke-dashoffset: 0; stroke-linejoin: miter; stroke-miterlimit: 4; is-custom-font: none; font-file-url: none; fill: none; fill-rule: nonzero; opacity: 1;" transform=" translate(-61.924, -124.1465)" d="M 61.924 172.07 c 26.468 0 47.924 -21.456 47.924 -47.924 S 88.392 76.222 61.924 76.222 S 14 97.678 14 124.146 s 21.456 47.925 47.924 47.925 z" stroke-linecap="round"/>
</g>
		<g transform="matrix(3.8618 0 0 3.8618 204.8478 158.5333)">
<path style="stroke: rgb(0,0,0); stroke-width: 8.6316; stroke-dasharray: none; stroke-linecap: butt; stroke-dashoffset: 0; stroke-linejoin: miter; stroke-miterlimit: 4; is-custom-font: none; font-file-url: none; fill: none; fill-rule: nonzero; opacity: 1;" transform=" translate(-149.045, -137.052)" d="M 149.044 166.007 c 15.992 0 28.956 -12.963 28.956 -28.955 c 0 -15.992 -12.964 -28.955 -28.956 -28.955 c -15.99 0 -28.954 12.963 -28.954 28.955 c 0 15.992 12.963 28.955 28.954 28.955 z" stroke-linecap="round"/>
</g>
		<g transform="matrix(3.8618 0 0 3.8618 -96.2118 -185.145)">
<path style="stroke: rgb(0,0,0); stroke-width: 8.6316; stroke-dasharray: none; stroke-linecap: butt; stroke-dashoffset: 0; stroke-linejoin: miter; stroke-miterlimit: 4; is-custom-font: none; font-file-url: none; fill: none; fill-rule: nonzero; opacity: 1;" transform=" translate(-71.0865, -48.0575)" d="M 71.086 65.979 c 9.898 0 17.922 -8.024 17.922 -17.921 c 0 -9.898 -8.024 -17.922 -17.922 -17.922 c -9.898 0 -17.921 8.024 -17.921 17.922 c 0 9.897 8.023 17.921 17.921 17.921 z" stroke-linecap="round"/>
</g>
		<g transform="matrix(3.8618 0 0 3.8618 161.3795 -143.3023)">
<path style="stroke: rgb(0,0,0); stroke-width: 8.6316; stroke-dasharray: none; stroke-linecap: butt; stroke-dashoffset: 0; stroke-linejoin: miter; stroke-miterlimit: 4; is-custom-font: none; font-file-url: none; fill: none; fill-rule: nonzero; opacity: 1;" transform=" translate(-137.789, -58.8925)" d="M 137.789 97.856 c 21.519 0 38.964 -17.444 38.964 -38.963 c 0 -21.52 -17.445 -38.964 -38.964 -38.964 c -21.52 0 -38.964 17.445 -38.964 38.964 s 17.445 38.963 38.964 38.963 z" stroke-linecap="round"/>
</g>
</g>
</g>
<g transform="matrix(24.2718 0 0 24.2718 349.0546 626.3743)" id="989802">
<circle style="stroke: none; stroke-width: 1; stroke-dasharray: none; stroke-linecap: butt; stroke-dashoffset: 0; stroke-linejoin: miter; stroke-miterlimit: 4; is-custom-font: none; font-file-url: none; fill: rgb(255,255,255); fill-rule: nonzero; opacity: 1;" vector-effect="non-scaling-stroke" cx="0" cy="0" r="8"/>
</g>
<g transform="matrix(19.0824 0 0 19.0824 685.6428 338.9471)" id="483920">
<circle style="stroke: none; stroke-width: 1; stroke-dasharray: none; stroke-linecap: butt; stroke-dashoffset: 0; stroke-linejoin: miter; stroke-miterlimit: 4; is-custom-font: none; font-file-url: none; fill: rgb(255,255,255); fill-rule: nonzero; opacity: 1;" vector-effect="non-scaling-stroke" cx="0" cy="0" r="8"/>
</g>
<g transform="matrix(8.5795 0 0 8.5795 391.2371 289.0914)" id="72200">
<circle style="stroke: none; stroke-width: 1; stroke-dasharray: none; stroke-linecap: butt; stroke-dashoffset: 0; stroke-linejoin: miter; stroke-miterlimit: 4; is-custom-font: none; font-file-url: none; fill: rgb(255,255,255); fill-rule: nonzero; opacity: 1;" vector-effect="non-scaling-stroke" cx="0" cy="0" r="8"/>
</g>
<g transform="matrix(14.1301 0 0 14.29 733.4561 677.6763)" id="836689">
<circle style="stroke: none; stroke-width: 1; stroke-dasharray: none; stroke-linecap: butt; stroke-dashoffset: 0; stroke-linejoin: miter; stroke-miterlimit: 4; is-custom-font: none; font-file-url: none; fill: rgb(255,255,255); fill-rule: nonzero; opacity: 1;" vector-effect="non-scaling-stroke" cx="0" cy="0" r="8"/>
</g>
</svg>